HIERARCHY
ROOT Hips
{
  OFFSET -1.85789 92.8449 61.1929
  CHANNELS 6 Xposition Yposition Zposition Zrotation Xrotation Yrotation
  JOINT Spine
  {
    OFFSET -0.000355721 21.3001 -0.016921
    CHANNELS 3 Zrotation Xrotation Yrotation
    JOINT LeftArm
    {
      OFFSET 13.5181 21.3012 0
      CHANNELS 3 Zrotation Xrotation Yrotation
      JOINT LeftForeArm
      {
        OFFSET 24.5783 0 0
        CHANNELS 3 Zrotation Xrotation Yrotation
        JOINT LeftHand
        {
          OFFSET 24.5783 0 0
          CHANNELS 3 Zrotation Xrotation Yrotation
          End Site
          {
            OFFSET 7.32568 1.52588e-05 0.0169305
          }
        }
      }
    }
    JOINT Head
    {
      OFFSET 0 27.4458 -0.00489235
      CHANNELS 3 Zrotation Xrotation Yrotation
      End Site
      {
        OFFSET 0 0 0
      }
    }
    JOINT RightArm
    {
      OFFSET -13.5174 21.3012 0
      CHANNELS 3 Zrotation Xrotation Yrotation
      JOINT RightForeArm
      {
        OFFSET -24.5783 0 0
        CHANNELS 3 Zrotation Xrotation Yrotation
        JOINT RightHand
        {
          OFFSET -24.5783 0 0
          CHANNELS 3 Zrotation Xrotation Yrotation
          End Site
          {
            OFFSET -7.32568 1.52588e-05 0.0169305
          }
        }
      }
    }
  }
  JOINT RightUpLeg
  {
    OFFSET -8.44614 -9.41038 0.835684
    CHANNELS 3 Zrotation Xrotation Yrotation
    JOINT RightLeg
    {
      OFFSET 0 -40.9639 0
      CHANNELS 3 Zrotation Xrotation Yrotation
      JOINT RightFoot
      {
        OFFSET 0 -40.9639 0
        CHANNELS 3 Zrotation Xrotation Yrotation
        End Site
        {
          OFFSET 0.50614 -9.67405 14.6709
        }
      }
    }
  }
  JOINT LeftUpLeg
  {
    OFFSET 8.44614 -9.41038 0.835684
    CHANNELS 3 Zrotation Xrotation Yrotation
    JOINT LeftLeg
    {
      OFFSET 0 -40.9639 0
      CHANNELS 3 Zrotation Xrotation Yrotation
      JOINT LeftFoot
      {
        OFFSET 0 -40.9639 0
        CHANNELS 3 Zrotation Xrotation Yrotation
        End Site
        {
          OFFSET -0.50614 -9.67405 14.6709
        }
      }
    }
  }
}
MOTION
Frames:	28
Frame Time:	0.0333333
-1.85789 92.8449 -0.0540772 3.02275 0.107739 -87.0426 2.24046 1.6756 1.81182 -14.9115 -38.0905 15.6726 -4.01288e-05 -7.1619e-06 -64.692 10.8742 7.83754 -17.1792 -7.14153 -5.92305 60.5616 47.2774 26.704 72.8494 9.08363e-05 4.62072e-06 107.627 -10.3737 8.81772 -0.353105 -10.4671 -17.315 -18.3878 -4.78759 28.234 -0.729768 10.7079 -41.0083 0.658832 13.8556 -12.0487 20.2218 4.02381 21.5227 7.58139 -7.60631 -35.2556 14.6622 
-1.73148 92.7451 -0.0114184 3.09039 0.190566 -85.9735 2.17959 1.62668 1.78386 -14.9224 -37.9175 15.3984 -4.0176e-05 -7.06125e-06 -65.0722 10.3855 8.00179 -16.2041 -7.44827 -5.62116 60.0406 47.1327 26.2196 72.8398 9.08378e-05 4.61593e-06 107.608 -10.8302 9.78776 0.0708852 -10.5804 -17.3484 -18.3626 -4.94857 28.6133 -0.69285 11.0673 -41.3607 0.741226 14.1388 -12.986 20.4356 3.92571 22.4455 7.23219 -7.54079 -35.4115 14.2989 
-1.60654 92.6475 0.0339596 3.16187 0.378019 -84.7303 2.11612 1.56905 1.75023 -14.9604 -37.7324 15.0603 -4.02177e-05 -6.97073e-06 -65.4131 9.9726 8.2484 -15.6364 -7.72085 -5.31771 59.4183 46.8232 25.6075 72.8957 9.08273e-05 4.64903e-06 107.739 -12.0918 11.5143 0.203643 -10.6072 -17.3096 -18.3126 -5.01986 28.916 -0.877245 11.4282 -41.6838 0.82657 14.5522 -13.992 20.7224 3.79489 23.3826 6.85599 -7.52693 -35.543 13.7289 
-1.50442 92.5456 0.0975968 3.22742 0.587784 -83.3295 2.05339 1.50847 1.70631 -15.0589 -37.4929 14.6291 -4.02466e-05 -6.90721e-06 -65.6517 9.68177 8.62365 -15.4244 -7.99823 -4.95854 58.7414 46.3981 24.9673 73.0402 9.08022e-05 4.72678e-06 108.046 -13.7343 13.6381 -0.19619 -10.6772 -17.1936 -18.3309 -5.02459 29.2137 -1.11856 11.8057 -42.0437 0.922293 14.9736 -15.0246 21.0571 3.65999 24.3164 6.46366 -7.59373 -35.6736 12.914 
-1.38854 92.4421 0.186089 3.28768 0.74523 -81.8084 1.99646 1.44886 1.65496 -15.2489 -37.1885 14.1066 -4.02578e-05 -6.88246e-06 -65.7446 9.33469 9.02683 -15.1599 -8.32778 -4.52183 58.0672 46.133 24.5334 73.2323 9.07754e-05 4.80823e-06 108.368 -14.7429 15.619 -0.867348 -10.875 -17.0319 -18.4627 -5.00926 29.5146 -1.27228 12.1982 -42.4265 1.02605 15.2866 -16.0737 21.3575 3.50143 25.204 6.07501 -7.5993 -35.7701 12.0725 
-1.26129 92.3195 0.262402 3.34116 0.845887 -80.1785 1.93556 1.39148 1.60677 -15.5814 -36.831 13.5356 -4.02576e-05 -6.88283e-06 -65.7432 8.68174 9.29448 -14.4974 -8.70222 -4.02303 57.3604 46.2388 24.3926 73.3477 9.07651e-05 4.83904e-06 108.49 -14.5087 16.982 -1.10368 -11.1066 -16.9003 -18.5438 -5.07953 29.9373 -1.47575 12.679 -42.883 1.1527 15.5613 -17.1556 21.6793 3.25254 26.1213 5.70869 -7.51445 -35.8495 11.2369 
-1.14525 92.1855 0.338127 3.39374 0.932626 -78.4146 1.83657 1.34104 1.56723 -16.1412 -36.3732 13.0231 -4.02679e-05 -6.85986e-06 -65.8294 7.84588 9.35653 -13.5519 -9.05548 -3.51114 56.5358 46.4717 24.2943 73.3041 9.07734e-05 4.81415e-06 108.391 -13.624 17.3196 -0.626026 -11.3629 -16.7417 -18.6296 -5.14766 30.415 -1.81196 13.2182 -43.3824 1.29934 15.8161 -18.2414 22.0467 2.97479 27.0171 5.36479 -7.53646 -35.9131 10.097 
-1.05368 92.0372 0.422521 3.49082 1.06995 -76.4843 1.68023 1.30446 1.52458 -17.0394 -35.6731 12.6695 -4.03074e-05 -6.77117e-06 -66.1614 7.44202 9.33669 -12.7432 -9.32815 -3.07371 55.5651 46.3361 23.8602 73.1828 9.07851e-05 4.77867e-06 108.251 -13.3355 16.5586 -0.00347035 -11.6113 -16.5725 -18.7241 -5.16518 30.915 -2.25946 13.7988 -43.9316 1.46655 16.2988 -19.3749 22.7192 2.36691 27.9874 5.14017 -7.57601 -35.9843 8.48689 
-0.959216 91.8658 0.538407 3.64737 1.35689 -74.3371 1.48047 1.27887 1.46438 -18.4431 -34.537 12.4229 -4.03744e-05 -6.61763e-06 -66.7342 8.09277 9.53306 -12.2762 -9.44698 -2.74817 54.4193 45.798 22.978 73.0754 9.07829e-05 4.78535e-06 108.277 -14.1929 15.7489 -0.069933 -11.8137 -16.4146 -18.8659 -5.05504 31.4139 -2.8247 14.3887 -44.5152 1.65342 17.2194 -20.6338 23.8386 1.20759 29.1425 4.70732 -7.19689 -36.1302 6.8911 
-0.80858 91.641 0.699748 3.77759 1.90795 -71.9326 1.27652 1.25001 1.40245 -20.6162 -32.7895 12.1347 -4.04603e-05 -6.41403e-06 -67.49 9.81057 10.0569 -11.9932 -9.21266 -2.48605 52.9695 45.5097 21.984 72.8233 9.07606e-05 4.85255e-06 108.543 -15.2875 17.0736 -0.982937 -11.9361 -16.2875 -19.0901 -4.62746 32.0266 -3.79079 14.94 -45.122 1.85645 18.6687 -22.0975 25.312 -0.437613 30.6348 3.24295 -5.73626 -36.4703 6.47554 
-0.629591 91.2886 0.92188 3.83406 2.72439 -69.3648 1.09809 1.21686 1.38141 -23.8559 -30.3516 11.8313 -4.05538e-05 -6.1837e-06 -68.3401 11.887 10.4957 -11.8982 -8.42444 -2.36969 51.1438 46.0081 21.428 72.1011 9.07346e-05 4.92932e-06 108.847 -14.9765 21.4767 -1.90059 -11.9545 -16.3087 -19.2621 -4.02223 33.0179 -4.86054 15.5651 -45.9589 2.13126 20.6748 -23.8361 27.278 -2.38219 32.7562 1.786 -3.97062 -36.9947 6.06775 
-0.408204 90.8057 1.24322 3.94311 3.61143 -66.9218 0.91698 1.21685 1.42974 -28.2958 -27.3877 11.7461 -4.06216e-05 -6.01006e-06 -68.9777 13.5162 10.4468 -12.3848 -7.17895 -2.71833 49.1658 46.9153 21.7596 70.6379 9.07325e-05 4.93535e-06 108.871 -13.0757 25.9844 -2.24635 -12.2421 -16.6705 -19.5761 -3.14806 34.5061 -5.91883 16.2098 -46.9929 2.47816 22.5918 -25.9466 29.1864 -3.95868 35.3957 0.682409 -2.31351 -37.8328 5.70563 
-0.146247 90.2062 1.64263 4.18095 4.41331 -64.9146 0.678412 1.28945 1.54397 -33.6494 -24.5382 11.9312 -4.06396e-05 -5.96315e-06 -69.1494 14.6723 10.3885 -13.4773 -5.72457 -3.79639 47.3742 47.2996 23.4202 68.0479 9.07513e-05 4.88019e-06 108.653 -11.386 25.205 -3.5648 -13.0457 -17.3953 -20.1403 -1.96715 36.4451 -6.45294 16.6903 -48.2421 2.8574 24.4684 -28.282 31.141 -5.42394 38.4454 1.48258 -0.922758 -39.406 5.36942 
0.193348 89.5 2.24896 4.34925 5.40938 -63.3401 0.420492 1.40596 1.68676 -39.0894 -22.7213 11.9854 -4.06573e-05 -5.91651e-06 -69.32 16.195 11.2279 -14.4882 -3.87936 -5.6045 45.7185 46.816 26.918 63.5266 9.07696e-05 4.82551e-06 108.436 -12.2822 16.8105 -8.04637 -13.6087 -18.2964 -20.6702 -1.29734 38.3732 -6.27276 17.3954 -49.4483 3.28267 26.8284 -30.2004 32.9898 -6.30743 41.7538 4.37218 -0.934728 -41.1998 5.00261 
0.489187 88.8159 3.19364 4.23581 7.05971 -61.8095 0.264852 1.50011 1.77004 -43.6267 -22.1499 11.1511 -4.07535e-05 -5.65492e-06 -70.2733 18.4881 12.9254 -14.9903 -1.0166 -7.99883 43.7387 46.6663 31.8712 56.079 0.000136639 4.53606e-06 107.294 -16.6856 4.61752 -14.8955 -13.3749 -18.7509 -20.8553 -0.469872 39.4182 -6.57656 18.2114 -50.2624 3.64172 30.0243 -31.6791 35.425 -7.10247 44.9301 7.07251 -1.26222 -42.1377 4.54915 
0.636296 88.1966 4.53031 3.94493 9.02309 -59.8786 0.175705 1.56831 1.67032 -46.5132 -21.6521 8.5942 -4.09079e-05 -5.2044e-06 -71.902 20.5027 14.0858 -14.8159 2.97985 -10.8211 41.1717 49.4836 35.579 45.3545 0.0119317 6.43616e-06 102.175 -20.2476 -5.77484 -20.2226 -12.7705 -18.515 -20.722 0.648644 39.5351 -7.82918 19.358 -50.738 3.9927 33.6753 -32.7532 39.0147 -8.93096 47.8307 8.21635 -0.0953505 -42.8904 4.28036 
0.678806 87.7511 6.48942 3.75968 10.1882 -57.4107 -0.0244377 1.65186 1.32954 -46.9483 -20.0285 3.34592 -4.10573e-05 -4.72263e-06 -73.6271 21.015 12.4081 -12.6842 7.12402 -13.8636 38.2543 56.5471 33.6857 32.8048 0.0089569 2.24953e-05 90.0256 -17.0726 -13.3699 -19.476 -13.7534 -16.8997 -22.1365 2.38809 38.669 -8.54892 20.1674 -50.8784 4.09804 34.9062 -34.0035 41.0345 -10.4333 50.3266 8.0791 1.96111 -44.8292 4.29856 
0.734825 87.6757 8.92089 3.77841 10.0658 -54.6883 -0.267185 1.72574 0.828547 -44.3736 -18.5288 -5.78562 -4.12459e-05 -4.02555e-06 -76.097 21.5617 5.64136 -7.88831 10.2044 -16.6746 35.5721 64.2825 24.2832 21.4345 -6.63946e-05 -6.36456e-06 72.3165 -7.30714 -19.4963 -12.7396 -15.5177 -15.229 -23.8782 2.70368 38.6909 -9.62416 16.4545 -51.2738 3.26767 33.225 -34.1073 41.1785 -12.4714 51.1789 8.99553 4.36993 -46.6072 4.4226 
1.26348 88.1071 11.714 3.89766 9.22699 -52.3812 -0.073171 1.69336 0.278107 -39.61 -20.7055 -19.1266 -4.14936e-05 -2.84358e-06 -80.2279 25.5331 -5.17427 -3.68392 11.8111 -18.4386 34.1029 67.9206 11.2968 12.759 -5.46609e-05 7.51685e-06 55.4461 2.89692 -23.4893 -5.8443 -17.4685 -14.2417 -24.6974 1.6107 39.3043 -8.90901 12.3694 -48.4908 2.00132 28.5556 -33.7988 38.5777 -12.3603 50.4309 9.0862 5.88428 -48.0039 4.44679 
2.1949 89.5109 14.7743 4.32955 7.96005 -51.4116 0.786534 1.48026 -0.345453 -34.4446 -28.5326 -34.4123 -4.16536e-05 -1.66733e-06 -84.2884 31.0281 -13.5429 -4.30717 11.8795 -18.1509 34.71 66.2075 0.395492 7.2699 -5.31229e-05 9.36554e-06 45.0352 8.03438 -24.4636 -4.14182 -19.8908 -17.2434 -23.9229 -0.742277 44.0164 -9.33778 9.28705 -34.4404 -0.0233058 21.1681 -32.0632 33.3058 -10.3665 46.166 9.19868 6.2318 -47.9633 4.23331 
2.83094 91.8388 17.977 5.33749 5.96263 -52.3518 2.04592 1.09677 -1.04251 -29.4502 -39.4327 -46.4119 -4.16829e-05 -1.34249e-06 -85.4039 34.0114 -13.0867 -8.295 10.0021 -15.3435 37.19 61.3941 -6.33003 5.87469 -5.25375e-05 9.91714e-06 41.5573 9.13393 -22.9286 -6.51836 -20.7918 -22.1411 -22.1302 -3.58224 49.2386 -7.327 -9.18903 -25.0815 -15.9527 12.5426 -26.8918 27.45 -9.13252 36.4843 11.7755 6.24315 -45.6422 3.84113 
3.35161 94.6548 20.9896 6.72866 3.00088 -55.0816 3.31889 0.69544 -1.5406 -23.489 -48.0261 -50.0157 -4.16066e-05 -2.08418e-06 -82.8538 34.2488 -4.55078 -9.3498 5.69851 -10.4274 40.6909 56.3789 -8.9555 8.14568 -5.28399e-05 9.64052e-06 43.3294 9.16424 -20.3157 -8.94969 -22.2908 -27.3264 -22.5237 -3.32379 55.2862 -7.32247 -9.32164 -26.8451 -10.8746 4.02678 -20.9467 21.5381 -6.59063 25.9529 8.7221 2.91832 -39.1393 9.35127 
3.66413 97.8915 23.1875 8.26501 -1.69499 -59.2016 3.72075 0.550792 -1.46626 -15.5121 -49.757 -42.3544 -4.13754e-05 -3.46084e-06 -78.0784 29.4991 6.73471 -6.42843 -1.73982 -4.24231 44.7251 51.9483 -6.20916 12.0619 -5.39135e-05 8.50066e-06 50.1027 6.52367 -16.7261 -11.7885 -23.347 -30.7907 -23.9515 -0.644162 57.7265 -9.42488 -10.129 -29.6276 -5.10702 -2.41379 -16.9234 17.5635 -5.45556 19.7572 7.26075 -7.97078 -25.5594 19.7584 
3.70602 100.796 24.6929 9.52834 -8.24152 -64.227 3.11296 0.801388 -0.610269 -9.68494 -43.7293 -27.7027 -4.08291e-05 -5.43967e-06 -71.0534 20.4742 17.5855 -3.92696 -12.6562 1.32584 49.5275 47.1233 2.86162 16.5176 -5.53565e-05 6.39015e-06 61.173 -0.0461456 -10.2057 -19.1256 -23.4084 -32.9485 -24.9695 -0.463553 56.0511 -9.614 -0.114571 -28.8758 -2.84309 -1.74623 -18.3655 20.1763 -9.76029 30.5241 10.0349 -27.5512 -11.3527 7.58334 
3.51901 102.477 25.4239 10.9495 -15.6913 -69.1247 1.6618 1.17229 0.687959 -12.3839 -34.8601 -15.027 -3.94488e-05 -8.45152e-06 -59.7045 13.5357 27.723 -3.79788 -25.3957 3.57117 54.7463 41.3001 15.0353 23.1972 -5.64404e-05 3.80666e-06 73.3078 -3.21851 -1.98666 -31.4909 -23.4053 -33.3973 -24.4146 -2.40637 49.519 -8.22885 -4.47728 -26.4904 -6.14917 4.80554 -23.1248 28.0045 -18.2642 52.2438 4.8463 -31.9037 2.06255 -1.09788 
2.9408 102.786 25.5532 13.2044 -23.3071 -72.3792 -1.08626 1.3965 1.63199 -22.9524 -29.1426 -7.23746 -3.64789e-05 -1.21873e-05 -43.3274 11.8843 35.8631 -2.37438 -36.7764 2.08605 58.6414 34.715 24.9918 33.7552 -5.69075e-05 1.55376e-06 83.2673 3.41364 1.83913 -42.697 -24.1935 -33.0597 -23.2441 -5.75947 39.976 -6.89267 -11.5869 -19.0916 -6.59372 14.7612 -27.2355 35.3263 -38.5864 73.759 30.1373 -23.3154 3.60502 -5.41342 
2.31324 101.965 25.6574 15.3633 -29.9938 -73.7983 -4.05868 1.66845 1.87757 -37.0195 -27.0232 -1.28481 -3.20142e-05 -1.52068e-05 -24.814 13.2714 39.8453 2.17332 -44.6002 -0.998373 59.9728 27.8562 30.8507 46.4771 -5.69983e-05 -1.16713e-07 90.5046 13.3647 -0.324872 -45.9887 -25.7694 -31.7381 -23.1201 -9.59128 30.0624 -6.2725 -8.24031 -11.9501 0.72383 27.1237 -30.5265 38.0629 -107.378 83.6614 101.288 -20.1974 0.188353 -0.196039 
1.55558 100.476 25.3981 17.1572 -36.199 -73.8736 -6.59791 2.25672 1.60665 -50.9714 -26.5376 7.23489 -2.77173e-05 -1.6529e-05 -9.3927 16.8413 42.5136 4.35908 -48.5963 -4.76755 58.908 21.3625 34.5255 58.3996 -5.693e-05 -1.34888e-06 95.8416 17.5001 -4.32785 -42.5809 -28.6448 -28.5917 -23.7255 -10.4367 22.2251 -6.50975 -7.79 -9.0675 1.44323 40.0695 -30.6006 38.0807 -138.084 87.7156 131.821 -10.5055 -2.27742 -3.78843 
